<?xml version="1.0" encoding="utf-8"?>
<!-- Generator: Adobe Illustrator 17.1.0, SVG Export Plug-In . SVG Version: 6.00 Build 0)  -->
<!DOCTYPE svg PUBLIC "-//W3C//DTD SVG 1.1//EN" "http://www.w3.org/Graphics/SVG/1.1/DTD/svg11.dtd">
<svg version="1.1" id="Layer_1" xmlns="http://www.w3.org/2000/svg" xmlns:xlink="http://www.w3.org/1999/xlink" x="0px" y="0px"
	 viewBox="0 0 308.5 316.2" enable-background="new 0 0 308.5 316.2" xml:space="preserve">
<path fill="#0C0C0C" d="M0,316.2h183.3c-3.7-6.2-4.9-14.3-1.5-25c12.8-40.3,42.3-39.3,54.1-32.4c11.8,6.9,27.5-7.9,30.5-12.8
	c2.9-4.9-8.9-28.5-7.9-30.5c0.2-0.4,0.7-2.1,1.4-4.5c2.6-2.7,5.2-6,6.4-9.2c1.7-4.6,1.1-9.1-0.5-12.2c0.9-3.3,1.5-5.5,1.5-5.5
	s-2-20.6,1-20.6c3,0,15.7-1,18.7-6.9c2.9-5.9-12.8-20.6-22.6-30.5c-3-3-4.9-7.9-6.5-14c21.8,0.4,38.6-2,48.8-7.6
	c8.8-12.8-17.7-26.5-24.6-38.3c-6.9-11.8-47.2-63.9-117-65.9c-69.8-2-92.4,11.8-117,38.3c-24.6,26.5-20.6,96.4-20.6,96.4
	s1-0.3,2.7-0.8c2.4,43.4,19.8,67.2,23.8,94.2C58.9,261.7,0,316.1,0,316.2L0,316.2z"/>
</svg>
